<svg xmlns="http://www.w3.org/2000/svg" viewBox="0 0 273.85 164.21"><title>lacoste-crocodiles-logo</title><path d="M526.12,510.36l-1.24,5.41a.64.64,0,0,1-1,.44l-6.41-3.08c-.49-.22-.49-.62,0-.85a31.74,31.74,0,0,1,7.84-2.54c.55-.11.89.19.77.62M514,506.16l-1.22,5.41a.64.64,0,0,1-1,.44l-6.41-3.08c-.49-.23-.49-.63,0-.86a30.86,30.86,0,0,1,7.83-2.54c.53-.11.9.18.77.6M510.16,523a.63.63,0,0,1-1,.44l-6.41-3.08c-.49-.22-.55-.62,0-.85a30.85,30.85,0,0,1,7.83-2.55c.55-.09.9.2.79.62L510.15,523m-8.94-18.95-1.25,5.4a.64.64,0,0,1-1,.46l-6.4-3.08c-.49-.22-.51-.62,0-.86a31.52,31.52,0,0,1,7.85-2.55c.53-.09.89.2.77.63m-2.56,11.13-1.25,5.4a.64.64,0,0,1-1,.46L490,518c-.48-.22-.55-.63,0-.86a31.69,31.69,0,0,1,7.84-2.54c.54-.11.88.19.77.63m-2.54,11.38-1.25,5.4a.64.64,0,0,1-1,.46l-6.41-3.09c-.48-.22-.49-.63,0-.86a31.47,31.47,0,0,1,7.84-2.54c.54-.11.9.19.79.62m-9.39-17.38a.62.62,0,0,1-.93.46l-6.43-3.08c-.49-.23-.51-.62,0-.85a30.86,30.86,0,0,1,7.85-2.55c.53-.09.88.18.77.63l-1.26,5.4m-1.29,5.64-1.24,5.41a.65.65,0,0,1-1,.44l-6.41-3.08c-.49-.23-.49-.63,0-.86a30.92,30.92,0,0,1,7.84-2.55c.55-.09.9.19.78.62m-2.47,11.24-1.24,5.41a.64.64,0,0,1-1,.44l-6.41-3.08c-.48-.23-.49-.62,0-.85a30.86,30.86,0,0,1,7.84-2.56c.54-.09.89.19.77.63m-10.4-15.34-6.43-3.08c-.48-.23-.49-.63,0-.86a31.72,31.72,0,0,1,7.85-2.54c.53-.1.88.19.77.62l-1.25,5.41a.64.64,0,0,1-1,.44m-.38,5.38-1.24,5.41a.63.63,0,0,1-1,.44l-6.41-3.08c-.55-.24-.51-.62,0-.86a30.63,30.63,0,0,1,7.85-2.54c.54-.09.88.2.77.62m-2.48,11.31-1.25,5.41a.62.62,0,0,1-.93.45l-6.43-3.08c-.48-.23-.49-.62,0-.85a30.62,30.62,0,0,1,7.85-2.54c.54-.1.89.2.77.62M459.06,513l-6.41-3.08c-.49-.22-.52-.55,0-.85a31.08,31.08,0,0,1,7.84-2.54c.55-.09.89.19.78.63l-1.25,5.4a.63.63,0,0,1-1,.45m-1.77,11.4a.63.63,0,0,1-.94.44l-6.4-3.09c-.48-.22-.51-.6,0-.85a30.44,30.44,0,0,1,7.84-2.54c.54-.09.9.18.79.62l-1.26,5.4m-2.55,11.32a.64.64,0,0,1-1,.45l-6.41-3.08c-.49-.22-.51-.62,0-.86a31.11,31.11,0,0,1,7.84-2.54c.53-.09.89.19.79.62l-1.26,5.4m-8-20.12a.62.62,0,0,1-.93.45l-6.43-3.08c-.48-.21-.51-.62,0-.85a31.58,31.58,0,0,1,7.84-2.54c.55-.1.89.19.78.63l-1.25,5.39m-1.57,6.95-1.25,5.4a.64.64,0,0,1-1,.44l-6.4-3.08c-.49-.22-.55-.62,0-.85a31.85,31.85,0,0,1,7.84-2.54c.55-.09.9.2.79.63m-2.58,11.7-1.24,5.39a.64.64,0,0,1-1,.45L434,537c-.49-.22-.49-.6,0-.85a31.21,31.21,0,0,1,7.85-2.54c.53-.11.89.19.77.63m-10.09-14.53-6.43-3.06c-.48-.22-.55-.63,0-.86a32.13,32.13,0,0,1,7.84-2.55c.55-.09.9.19.79.63l-1.25,5.4a.62.62,0,0,1-.94.44m-.54,6.06-1.25,5.41a.63.63,0,0,1-1,.44l-6.4-3.08c-.48-.22-.51-.62,0-.86a31.74,31.74,0,0,1,7.84-2.54c.55-.1.91.2.79.62m-11.59-5.57a.64.64,0,0,1-1,.46L413,517.57c-.55-.22-.55-.62,0-.86a31.18,31.18,0,0,1,7.85-2.53c.53-.11.88.18.77.6l-1.25,5.41m-2.57,11.33a.64.64,0,0,1-1,.46l-6.4-3.08c-.49-.24-.51-.63,0-.87a32.29,32.29,0,0,1,7.85-2.54c.54-.09.89.19.79.62l-1.26,5.41m-12.33-21.9c-.48-.22-.48-.62,0-.85a30.86,30.86,0,0,1,7.84-2.55c.53-.09.88.19.79.62l-1.25,5.41a.63.63,0,0,1-1,.44l-6.43-3.08m.68,15.9a.63.63,0,0,1-1,.44l-6.43-3.08c-.48-.22-.49-.63,0-.86a30.65,30.65,0,0,1,7.84-2.53c.55-.11.9.18.8.55l-1.26,5.42m-13.92-12.94c-.48-.24-.49-.62,0-.86a31.38,31.38,0,0,1,7.84-2.55c.54-.09.89.19.79.62l-1.26,5.41a.63.63,0,0,1-1,.45l-6.41-3.06m-1.39-11.63a32,32,0,0,1,7.86-2.54c.53-.11.89.19.77.62l-1.25,5.4a.64.64,0,0,1-1,.46l-6.43-3.08c-.48-.22-.48-.6,0-.85m3.08-10.68a30.92,30.92,0,0,1,7.84-2.54c.54-.11.89.18.79.55l-1.25,5.41a.64.64,0,0,1-1,.46L393.87,491c-.48-.22-.55-.62,0-.85M402,481a30.71,30.71,0,0,1,7.85-2.54c.54-.1.88.19.77.62l-1.24,5.4a.65.65,0,0,1-1,.45l-6.41-3.08c-.55-.23-.49-.62,0-.85m10.77,15.38-1.25,5.4a.63.63,0,0,1-1,.45l-6.41-3.08c-.48-.22-.55-.62,0-.86a31.64,31.64,0,0,1,7.85-2.54c.53-.09.88.18.77.62m5-10.25c.55-.1.9.19.79.62l-1.25,5.4a.62.62,0,0,1-.93.45L410,489.5c-.49-.22-.51-.62,0-.86a31,31,0,0,1,7.83-2.54m-5.11-12.21a31.36,31.36,0,0,1,7.84-2.54c.53-.09.88.19.78.63l-1.25,5.4a.62.62,0,0,1-1,.44l-6.41-3.08c-.49-.22-.51-.63,0-.86m11.83-5.54a31.9,31.9,0,0,1,7.84-2.55c.54-.09.89.19.77.62l-1.24,5.4a.64.64,0,0,1-1,.46l-6.41-3.08c-.42-.23-.44-.62,0-.85m150.14,32.93a6.88,6.88,0,0,1,6.25,4L573.08,507c-1.55.33-2.56-.33-2.72-1.54a4.21,4.21,0,0,1,4.27-4.15m13.43.41a3.43,3.43,0,0,1,2.94-2.37c2.16,0,3.2,2.34,3.19,3.05l-5.22,1.1c-1.47.27-1.43-.51-.91-1.83m58.6,43.66c-2.24-1.4-4.2-1.57-6.24-2.19-2.77-.82-3.66-4.2-4.68-4.59-2.08-.79-4,2.34-5.24,1.93s-1.77-4.52-2.79-4.9c-2-.74-4.16,2.42-5.42,2s-1.93-4.46-2.95-4.83c-2.09-.76-4.23,2.52-5.48,2.11s-1.61-4.62-2.64-5C609,529,607,532.32,605,532a17.9,17.9,0,0,1-7.58-3l-3.33-2.44c-.36-.14-1.29-.36-1.06,1.47.53,4.3,8,7.39,16.58,9.86l22.45,7.19c3.21,1.47,4.58,3.22,3.43,4.92-.9,1.32-3.1,1.41-5.49.29-2.56-1.21-2.83-3.22-4.45-3.59-2-.46-4.49,3.26-6.06,2.91-2-.47-2.24-4.74-4-5.22-2.36-.63-5,3-6.54,2.66s-2.14-4.9-3.62-5.27c-2.48-.64-5,3.16-6.57,2.83s-2.43-4.83-3.75-5.35c-2.47-1-5.78,2.71-9.2.92-11.09-7.41-9-11.24-17.43-13.73-4.38-1.28-9.83.27-13,.6-7.51.77-7.21-5.66-7.21-5.66,2.18.49,5.23,1.87,10.84-.19,6.06-2.23,9.45-2.62,17.35,0,6.67,2.22,10.64.24,13-.36,1.15-.3,2-.92,4.18.45s4.23,2.86,5.29,2.35c1.64-.79,1-5.13,3.87-6.05,1.29-.42,4.8,3.06,6.34,2.48s1.07-5.13,3.88-6.06c1.3-.42,4.81,3.06,6.34,2.49s1.07-5.14,3.88-6.07c1.3-.42,4.82,3.08,6.34,2.49s1.07-5.14,3.88-6.07c1.29-.42,4.82,3.08,6.34,2.5s1.32-1.76,2.56-4.85a4.38,4.38,0,0,1,1.32-1.72c1.71-1.39,4.31-4.38,2.78-7.72-1.39-3-4.26-2.93-10.55-1.65l-38.18,8.25c-5.13-9.41-8.61-3.2-16.22-4.11-4.82-.57-12.62-5.45-25,5.84a21.92,21.92,0,0,0-16.86,2.22c-7.4-3-21.52-10.16-48.34-10.16-7.59,0-25.68,1.48-54.49,9-7.38,1.92-14.11,1.51-15.75-2.83-1.65-4.54,4.21-9.3,15.35-14.59,27.64-13.13,46.09-10,83.25-29.53,20-10.38,21.31-22.64,21.29-25.61,0-2-2.09-2.71-3.29-1-6.7,9.27-8.42,8.5-10.51,6.43-2.79-2.76-4.67,1.63-7.66,3.84-2.27,1.67-2.73-.35-4.57-1.52-3.14-2-5.79,3.94-8.49,5.13-3.13,1.39-3.7-.16-4.76-1.26a2.18,2.18,0,0,0-3.08.16c-6.34,6-7.27,5.29-9.16,3.29-1.41-1.48-2.17-2.5-6.27,1.61-2.36,2.38-6.33,5.2-7.52,2.23s-2.25-4.71-8.06.55c-3.44,3.11-5.79,3.37-6.84,1.89s-.88-5.52-6.33-1.28c-4.88,3.81-7.33,6.1-8.94,2.42s-5.15-.57-7.88,2c-1.43,1.36-3.81,4.57-5.71,1.3s-5,.11-8.87,4.21c-2.2,2.31-3.68,1.29-5.86-.24-2.51-1.78-5.16,4.59-8.81,8.4-.69.63-1.68,1.1-3.88-.42-2.83-1.94-7.34,7.94-8.61,10.36-2.09,3.91-4.39-1-6.83,2.51-5.67,8.26-11.75,17.4-13.48,33.6-2.06,19.39,5.18,35.16,12.54,41,0,0-.9,2.17-1.92,4.9-2.06,5.46-2.91,12.55-.26,17.52,2.55,4.8,8.53,12.8,10.75,5.25,1.08-3.66,2.09-3.47,5.66-1,5.38,3.76,4.06-3.09,5.14-5.12.76-1.43,1.69-2,6.12.92,2.55,1.65,3.37-.59,4.12-3.72,2.34-9.67-2.27-12-6.81-12.94a22.19,22.19,0,0,0-6.8-.11c7.25-11,8.15-16.94,0-22.48a3.71,3.71,0,0,1,3.24.16,9.93,9.93,0,0,1,4.74,4.22c1.13,2,3,6.35-.77,14.15a11,11,0,0,1,10.29,6.48c3.56,1.14,26.55,2.95,36.59,1.34,3.65-.58,5.3-3.84,9-7.22,4-3.67,8.59-7.65,12.71-4.67-7,2.86-12,8.26-12,15.12,0,5.15,2.2,7.22,5.87,10.28,3.36,2.77,4.4,7.17,5.63,10.59,1.57,4.35,4.88,4.49,5.61.36,1-5.71,2.76-4.65,5-2.21,2.71,3,4.82,2.5,4.83-1.76,0-4,1.22-6,5.77-1.36,1.84,1.89,4.06,1.81,4-2.3,0-5,2.23-4.54,5.07-2.39,1,.75,1.67,1.29,2.21,1.26,2.24-.12,3.71-4.43,2-7.84-.86-1.65-2.11-4.25-13.71-6.62-3.8-.77-3.15-3.39-3.15-3.39,28.32,1.36,52.32-2.16,68.11-11.68,19.4,4.63,47.78,5.08,57.09,5s16.42-.53,22.26-3.29c6.15-2.93,5.22-7.37,2.38-9.14" transform="translate(-375.08 -429.9)" style="fill:#105a33"/><path d="M576.4,521.25c-7.9-2.62-11.29-2.23-17.35,0-5.6,2.06-8.66.7-10.84.19,0,0-.3,6.43,7.21,5.66,3.19-.33,8.65-1.89,13-.61,8.47,2.49,6.35,6.31,17.43,13.73,3.42,1.8,6.73-1.91,9.21-.92,1.31.52,2.18,5,3.74,5.35s4.09-3.47,6.57-2.83c1.47.38,2.06,5,3.62,5.27s4.18-3.29,6.54-2.66c1.78.47,2,4.75,4,5.22,1.57.36,4.08-3.37,6.06-2.9,1.61.38,1.88,2.38,4.44,3.59,2.39,1.12,4.6,1,5.49-.28,1.15-1.7-.22-3.45-3.43-4.92-5.18-2.37-13.87-4.74-22.45-7.2s-16.06-5.56-16.59-9.86c-.22-1.81.67-1.61,1-1.48-3.3-2.43-4-4.72-3.82-6h0l-.95.28c-2.32.59-6.29,2.58-13,.36" transform="translate(-375.08 -429.9)" style="fill:#e72734"/></svg>